# xmcd
#
# Track frame offsets: 
#        150
#        20962
#        49064
#        74282
#        95348
#        121302
#        150301
#        165336
#        183541
#        203507
#        219266
#
# Disc length: 3048 seconds
#
# Revision: 0
# Processed by: cddbd v1.5.2PL0 Copyright (c) Steve Scherf et al.
# Submitted via: ExactAudioCopy v1.0b4
#
DISCID=8b0be60b
DTITLE=Westside Andy - Blues Just Happen
DYEAR=2015
DGENRE=Blues
TTITLE0=Just Keep Lovin' Her
TTITLE1=Mean Disposition
TTITLE2=My Daddy Was A Jockey
TTITLE3=Sad Hours
TTITLE4=Got My Eyes On You
TTITLE5=Liquor Store Blues
TTITLE6=Lonesome
TTITLE7=Just Cuz
TTITLE8=Call My Job
TTITLE9=Don't Let The Green Grass Fool You
TTITLE10=Over and Out
EXTD=
EXTT0=
EXTT1=
EXTT2=
EXTT3=
EXTT4=
EXTT5=
EXTT6=
EXTT7=
EXTT8=
EXTT9=
EXTT10=
PLAYORDER=
